<svg width="836" height="579" viewBox="0 0 836 579" fill="none" xmlns="http://www.w3.org/2000/svg">
<path d="M1 286.091L299.756 1H442.345L153.773 286.091H442.345V561H299.756V415.061H1V286.091Z" fill="#151515"/>
<path d="M510.244 150.333V1H646.042L510.244 150.333Z" fill="#151515"/>
<path d="M659.622 150.333V1H802.21V150.333L659.622 299.667V438.818H510.244V299.667L659.622 150.333Z" fill="#151515"/>
<path d="M809 438.818H673.202L809 292.879V438.818Z" fill="#151515"/>
<path d="M1 286.091L299.756 1H442.345L153.773 286.091H442.345V561H299.756V415.061H1V286.091Z" stroke="#151515" stroke-opacity="0.6"/>
<path d="M510.244 150.333V1H646.042L510.244 150.333Z" stroke="#151515" stroke-opacity="0.6"/>
<path d="M659.622 150.333V1H802.21V150.333L659.622 299.667V438.818H510.244V299.667L659.622 150.333Z" stroke="#151515" stroke-opacity="0.6"/>
<path d="M809 438.818H673.202L809 292.879V438.818Z" stroke="#151515" stroke-opacity="0.6"/>
<mask id="path-2-outside-1_28_376" maskUnits="userSpaceOnUse" x="496" y="475" width="311" height="88" fill="black">
<rect fill="white" x="496" y="475" width="311" height="88"/>
<path d="M561.337 507.12C570.857 509.68 577.977 513.08 582.697 517.32C587.417 521.48 589.777 526.92 589.777 533.64C589.777 539 588.097 543.8 584.737 548.04C581.377 552.28 576.417 555.6 569.857 558C563.377 560.4 555.497 561.6 546.217 561.6C535.257 561.6 525.577 560.2 517.177 557.4C508.857 554.52 502.337 551.04 497.617 546.96L501.577 541.56C505.737 544.84 510.977 547.64 517.297 549.96C523.617 552.28 530.417 553.44 537.697 553.44C542.417 553.44 545.977 552.76 548.377 551.4C550.857 550.04 552.097 548.12 552.097 545.64C552.097 541.32 547.817 537.96 539.257 535.56L523.657 531C515.177 528.44 508.617 524.88 503.977 520.32C499.417 515.76 497.137 510.36 497.137 504.12C497.137 498.92 498.777 494.2 502.057 489.96C505.337 485.72 510.097 482.4 516.337 480C522.657 477.52 530.217 476.28 539.017 476.28C547.417 476.28 555.137 477.24 562.177 479.16C569.297 481.08 575.097 483.4 579.577 486.12L575.617 491.64C571.857 489.48 567.337 487.64 562.057 486.12C556.857 484.6 551.377 483.84 545.617 483.84C540.577 483.84 536.697 484.64 533.977 486.24C531.337 487.76 530.017 489.88 530.017 492.6C530.017 494.68 531.017 496.52 533.017 498.12C535.017 499.64 538.817 501.16 544.417 502.68L561.337 507.12ZM595.829 477H676.109C680.029 477 683.629 478 686.909 480C690.269 481.92 692.909 484.56 694.829 487.92C696.829 491.2 697.829 494.8 697.829 498.72C697.829 503.92 696.229 508.64 693.029 512.88C689.829 517.12 685.789 519.84 680.909 521.04C685.229 522.24 688.749 524.52 691.469 527.88C694.269 531.24 695.669 535.04 695.669 539.28V561H655.469V534.96C655.469 532.4 654.989 530.4 654.029 528.96C652.909 527.28 651.629 526.04 650.189 525.24C648.589 524.36 646.789 523.72 644.789 523.32C642.709 522.92 640.749 522.68 638.909 522.6L635.669 522.48V561H595.829V477ZM639.869 515.52C642.749 515.52 645.389 514.84 647.789 513.48C650.269 512.04 652.189 510.12 653.549 507.72C654.989 505.24 655.709 502.6 655.709 499.8C655.709 496.92 654.989 494.28 653.549 491.88C652.189 489.4 650.269 487.44 647.789 486C645.389 484.56 642.749 483.84 639.869 483.84H635.669V515.64L639.869 515.52ZM703.876 477H784.156C788.076 477 791.676 478 794.956 480C798.316 481.92 800.956 484.56 802.876 487.92C804.876 491.2 805.876 494.8 805.876 498.72C805.876 503.92 804.276 508.64 801.076 512.88C797.876 517.12 793.836 519.84 788.956 521.04C793.276 522.24 796.796 524.52 799.516 527.88C802.316 531.24 803.716 535.04 803.716 539.28V561H763.516V534.96C763.516 532.4 763.036 530.4 762.076 528.96C760.956 527.28 759.676 526.04 758.236 525.24C756.636 524.36 754.836 523.72 752.836 523.32C750.756 522.92 748.796 522.68 746.956 522.6L743.716 522.48V561H703.876V477ZM747.916 515.52C750.796 515.52 753.436 514.84 755.836 513.48C758.316 512.04 760.236 510.12 761.596 507.72C763.036 505.24 763.756 502.6 763.756 499.8C763.756 496.92 763.036 494.28 761.596 491.88C760.236 489.4 758.316 487.44 755.836 486C753.436 484.56 750.796 483.84 747.916 483.84H743.716V515.64L747.916 515.52Z"/>
</mask>
<path d="M561.337 507.12C570.857 509.68 577.977 513.08 582.697 517.32C587.417 521.48 589.777 526.92 589.777 533.64C589.777 539 588.097 543.8 584.737 548.04C581.377 552.28 576.417 555.6 569.857 558C563.377 560.4 555.497 561.6 546.217 561.6C535.257 561.6 525.577 560.2 517.177 557.4C508.857 554.52 502.337 551.04 497.617 546.96L501.577 541.56C505.737 544.84 510.977 547.64 517.297 549.96C523.617 552.28 530.417 553.44 537.697 553.44C542.417 553.44 545.977 552.76 548.377 551.4C550.857 550.04 552.097 548.12 552.097 545.64C552.097 541.32 547.817 537.96 539.257 535.56L523.657 531C515.177 528.44 508.617 524.88 503.977 520.32C499.417 515.76 497.137 510.36 497.137 504.12C497.137 498.92 498.777 494.2 502.057 489.96C505.337 485.72 510.097 482.4 516.337 480C522.657 477.52 530.217 476.28 539.017 476.28C547.417 476.28 555.137 477.24 562.177 479.16C569.297 481.08 575.097 483.4 579.577 486.12L575.617 491.64C571.857 489.48 567.337 487.64 562.057 486.12C556.857 484.6 551.377 483.84 545.617 483.84C540.577 483.84 536.697 484.64 533.977 486.24C531.337 487.76 530.017 489.88 530.017 492.6C530.017 494.68 531.017 496.52 533.017 498.12C535.017 499.64 538.817 501.16 544.417 502.68L561.337 507.12ZM595.829 477H676.109C680.029 477 683.629 478 686.909 480C690.269 481.92 692.909 484.56 694.829 487.92C696.829 491.2 697.829 494.8 697.829 498.72C697.829 503.92 696.229 508.64 693.029 512.88C689.829 517.12 685.789 519.84 680.909 521.04C685.229 522.24 688.749 524.52 691.469 527.88C694.269 531.24 695.669 535.04 695.669 539.28V561H655.469V534.96C655.469 532.4 654.989 530.4 654.029 528.96C652.909 527.28 651.629 526.04 650.189 525.24C648.589 524.36 646.789 523.72 644.789 523.32C642.709 522.92 640.749 522.68 638.909 522.6L635.669 522.48V561H595.829V477ZM639.869 515.52C642.749 515.52 645.389 514.84 647.789 513.48C650.269 512.04 652.189 510.12 653.549 507.72C654.989 505.24 655.709 502.6 655.709 499.8C655.709 496.92 654.989 494.28 653.549 491.88C652.189 489.4 650.269 487.44 647.789 486C645.389 484.56 642.749 483.84 639.869 483.84H635.669V515.64L639.869 515.52ZM703.876 477H784.156C788.076 477 791.676 478 794.956 480C798.316 481.92 800.956 484.56 802.876 487.92C804.876 491.2 805.876 494.8 805.876 498.72C805.876 503.92 804.276 508.64 801.076 512.88C797.876 517.12 793.836 519.84 788.956 521.04C793.276 522.24 796.796 524.52 799.516 527.88C802.316 531.24 803.716 535.04 803.716 539.28V561H763.516V534.96C763.516 532.4 763.036 530.4 762.076 528.96C760.956 527.28 759.676 526.04 758.236 525.24C756.636 524.36 754.836 523.72 752.836 523.32C750.756 522.92 748.796 522.68 746.956 522.6L743.716 522.48V561H703.876V477ZM747.916 515.52C750.796 515.52 753.436 514.84 755.836 513.48C758.316 512.04 760.236 510.12 761.596 507.72C763.036 505.24 763.756 502.6 763.756 499.8C763.756 496.92 763.036 494.28 761.596 491.88C760.236 489.4 758.316 487.44 755.836 486C753.436 484.56 750.796 483.84 747.916 483.84H743.716V515.64L747.916 515.52Z" fill="#151515"/>
<path d="M561.337 507.12L561.467 506.637L561.464 506.636L561.337 507.12ZM582.697 517.32L582.363 517.692L582.367 517.695L582.697 517.32ZM584.737 548.04L585.129 548.351L585.129 548.351L584.737 548.04ZM569.857 558L569.685 557.53L569.684 557.531L569.857 558ZM517.177 557.4L517.014 557.873L517.019 557.874L517.177 557.4ZM497.617 546.96L497.214 546.664L496.941 547.036L497.29 547.338L497.617 546.96ZM501.577 541.56L501.887 541.167L501.48 540.847L501.174 541.264L501.577 541.56ZM517.297 549.96L517.469 549.491L517.469 549.491L517.297 549.96ZM548.377 551.4L548.137 550.962L548.131 550.965L548.377 551.4ZM539.257 535.56L539.117 536.04L539.122 536.041L539.257 535.56ZM523.657 531L523.513 531.479L523.517 531.48L523.657 531ZM503.977 520.32L503.624 520.674L503.627 520.677L503.977 520.32ZM502.057 489.96L502.453 490.266L502.453 490.266L502.057 489.96ZM516.337 480L516.517 480.467L516.52 480.465L516.337 480ZM562.177 479.16L562.046 479.642L562.047 479.643L562.177 479.16ZM579.577 486.12L579.983 486.411L580.298 485.973L579.837 485.693L579.577 486.12ZM575.617 491.64L575.368 492.074L575.76 492.299L576.023 491.931L575.617 491.64ZM562.057 486.12L561.917 486.6L561.919 486.6L562.057 486.12ZM533.977 486.24L534.227 486.673L534.231 486.671L533.977 486.24ZM533.017 498.12L532.705 498.511L532.715 498.518L533.017 498.12ZM544.417 502.68L544.286 503.163L544.29 503.164L544.417 502.68ZM561.207 507.603C570.689 510.153 577.725 513.526 582.363 517.692L583.031 516.948C578.229 512.634 571.025 509.207 561.467 506.637L561.207 507.603ZM582.367 517.695C586.971 521.753 589.277 527.052 589.277 533.64H590.277C590.277 526.787 587.864 521.207 583.028 516.945L582.367 517.695ZM589.277 533.64C589.277 538.886 587.636 543.577 584.345 547.729L585.129 548.351C588.558 544.023 590.277 539.114 590.277 533.64H589.277ZM584.345 547.729C581.057 551.879 576.184 555.153 569.685 557.53L570.029 558.47C576.651 556.047 581.697 552.681 585.129 548.351L584.345 547.729ZM569.684 557.531C563.275 559.905 555.457 561.1 546.217 561.1V562.1C555.537 562.1 563.48 560.895 570.031 558.469L569.684 557.531ZM546.217 561.1C535.299 561.1 525.674 559.705 517.335 556.926L517.019 557.874C525.481 560.695 535.216 562.1 546.217 562.1V561.1ZM517.341 556.928C509.058 554.06 502.601 550.607 497.944 546.582L497.29 547.338C502.074 551.473 508.656 554.98 517.014 557.872L517.341 556.928ZM498.02 547.256L501.98 541.856L501.174 541.264L497.214 546.664L498.02 547.256ZM501.268 541.953C505.479 545.273 510.768 548.096 517.125 550.429L517.469 549.491C511.186 547.184 505.996 544.407 501.887 541.167L501.268 541.953ZM517.125 550.429C523.504 552.771 530.363 553.94 537.697 553.94V552.94C530.471 552.94 523.73 551.789 517.469 549.491L517.125 550.429ZM537.697 553.94C542.45 553.94 546.113 553.258 548.624 551.835L548.131 550.965C545.842 552.262 542.385 552.94 537.697 552.94V553.94ZM548.618 551.838C551.23 550.406 552.597 548.332 552.597 545.64H551.597C551.597 547.908 550.484 549.674 548.137 550.962L548.618 551.838ZM552.597 545.64C552.597 543.288 551.422 541.235 549.196 539.487C546.982 537.749 543.7 536.286 539.392 535.079L539.122 536.041C543.374 537.234 546.512 538.651 548.578 540.273C550.632 541.885 551.597 543.672 551.597 545.64H552.597ZM539.397 535.08L523.797 530.52L523.517 531.48L539.117 536.04L539.397 535.08ZM523.802 530.521C515.373 527.977 508.893 524.45 504.328 519.963L503.627 520.677C508.342 525.31 514.982 528.903 523.513 531.479L523.802 530.521ZM504.331 519.966C499.861 515.497 497.637 510.223 497.637 504.12H496.637C496.637 510.497 498.973 516.023 503.624 520.674L504.331 519.966ZM497.637 504.12C497.637 499.034 499.238 494.421 502.453 490.266L501.662 489.654C498.316 493.979 496.637 498.806 496.637 504.12H497.637ZM502.453 490.266C505.664 486.114 510.341 482.842 516.517 480.467L516.158 479.533C509.853 481.958 505.01 485.326 501.662 489.654L502.453 490.266ZM516.52 480.465C522.767 478.014 530.262 476.78 539.017 476.78V475.78C530.172 475.78 522.547 477.026 516.155 479.535L516.52 480.465ZM539.017 476.78C547.379 476.78 555.054 477.736 562.046 479.642L562.309 478.678C555.22 476.744 547.455 475.78 539.017 475.78V476.78ZM562.047 479.643C569.138 481.555 574.891 483.86 579.318 486.547L579.837 485.693C575.304 482.94 569.456 480.605 562.307 478.677L562.047 479.643ZM579.171 485.829L575.211 491.349L576.023 491.931L579.983 486.411L579.171 485.829ZM575.866 491.206C572.064 489.022 567.504 487.168 562.196 485.64L561.919 486.6C567.17 488.112 571.651 489.938 575.368 492.074L575.866 491.206ZM562.197 485.64C556.949 484.106 551.422 483.34 545.617 483.34V484.34C551.333 484.34 556.765 485.094 561.917 486.6L562.197 485.64ZM545.617 483.34C540.536 483.34 536.553 484.144 533.724 485.809L534.231 486.671C536.841 485.136 540.618 484.34 545.617 484.34V483.34ZM533.728 485.807C530.955 487.403 529.517 489.677 529.517 492.6H530.517C530.517 490.083 531.719 488.117 534.227 486.673L533.728 485.807ZM529.517 492.6C529.517 494.867 530.616 496.84 532.705 498.51L533.33 497.73C531.418 496.2 530.517 494.493 530.517 492.6H529.517ZM532.715 498.518C534.799 500.102 538.684 501.642 544.286 503.163L544.548 502.197C538.95 500.678 535.235 499.178 533.32 497.722L532.715 498.518ZM544.29 503.164L561.21 507.604L561.464 506.636L544.544 502.196L544.29 503.164ZM595.829 477V476.5H595.329V477H595.829ZM686.909 480L686.648 480.427L686.655 480.431L686.661 480.434L686.909 480ZM694.829 487.92L694.395 488.168L694.398 488.174L694.402 488.18L694.829 487.92ZM693.029 512.88L693.428 513.181L693.428 513.181L693.029 512.88ZM680.909 521.04L680.789 520.554L678.935 521.011L680.775 521.522L680.909 521.04ZM691.469 527.88L691.08 528.195L691.085 528.2L691.469 527.88ZM695.669 561V561.5H696.169V561H695.669ZM655.469 561H654.969V561.5H655.469V561ZM654.029 528.96L653.613 529.237L653.613 529.237L654.029 528.96ZM650.189 525.24L650.432 524.803L650.43 524.802L650.189 525.24ZM644.789 523.32L644.887 522.83L644.883 522.829L644.789 523.32ZM638.909 522.6L638.93 522.1L638.927 522.1L638.909 522.6ZM635.669 522.48L635.687 521.98L635.169 521.961V522.48H635.669ZM635.669 561V561.5H636.169V561H635.669ZM595.829 561H595.329V561.5H595.829V561ZM639.869 515.52V515.02H639.862L639.854 515.02L639.869 515.52ZM647.789 513.48L648.035 513.915L648.04 513.912L647.789 513.48ZM653.549 507.72L653.116 507.469L653.114 507.473L653.549 507.72ZM653.549 491.88L653.11 492.12L653.115 492.129L653.12 492.137L653.549 491.88ZM647.789 486L647.531 486.429L647.538 486.432L647.789 486ZM635.669 483.84V483.34H635.169V483.84H635.669ZM635.669 515.64H635.169V516.154L635.683 516.14L635.669 515.64ZM595.829 477.5H676.109V476.5H595.829V477.5ZM676.109 477.5C679.939 477.5 683.449 478.476 686.648 480.427L687.169 479.573C683.809 477.524 680.119 476.5 676.109 476.5V477.5ZM686.661 480.434C689.943 482.31 692.519 484.886 694.395 488.168L695.263 487.672C693.299 484.234 690.594 481.53 687.157 479.566L686.661 480.434ZM694.402 488.18C696.353 491.38 697.329 494.89 697.329 498.72H698.329C698.329 494.71 697.304 491.02 695.256 487.66L694.402 488.18ZM697.329 498.72C697.329 503.809 695.766 508.424 692.63 512.579L693.428 513.181C696.692 508.856 698.329 504.031 698.329 498.72H697.329ZM692.63 512.579C689.495 516.733 685.551 519.384 680.789 520.554L681.028 521.526C686.026 520.296 690.163 517.507 693.428 513.181L692.63 512.579ZM680.775 521.522C684.999 522.695 688.428 524.919 691.08 528.195L691.857 527.565C689.069 524.121 685.459 521.785 681.043 520.558L680.775 521.522ZM691.085 528.2C693.812 531.473 695.169 535.161 695.169 539.28H696.169C696.169 534.919 694.725 531.007 691.853 527.56L691.085 528.2ZM695.169 539.28V561H696.169V539.28H695.169ZM695.669 560.5H655.469V561.5H695.669V560.5ZM655.969 561V534.96H654.969V561H655.969ZM655.969 534.96C655.969 532.346 655.48 530.235 654.445 528.683L653.613 529.237C654.498 530.565 654.969 532.454 654.969 534.96H655.969ZM654.445 528.683C653.29 526.951 651.955 525.649 650.432 524.803L649.946 525.677C651.302 526.431 652.527 527.609 653.613 529.237L654.445 528.683ZM650.43 524.802C648.78 523.895 646.931 523.239 644.887 522.83L644.691 523.81C646.646 524.201 648.397 524.825 649.948 525.678L650.43 524.802ZM644.883 522.829C642.783 522.425 640.798 522.182 638.93 522.1L638.887 523.1C640.699 523.178 642.635 523.415 644.694 523.811L644.883 522.829ZM638.927 522.1L635.687 521.98L635.65 522.98L638.89 523.1L638.927 522.1ZM635.169 522.48V561H636.169V522.48H635.169ZM635.669 560.5H595.829V561.5H635.669V560.5ZM596.329 561V477H595.329V561H596.329ZM639.869 516.02C642.831 516.02 645.557 515.32 648.035 513.915L647.542 513.045C645.221 514.36 642.666 515.02 639.869 515.02V516.02ZM648.04 513.912C650.593 512.43 652.578 510.447 653.984 507.967L653.114 507.473C651.799 509.793 649.944 511.65 647.538 513.048L648.04 513.912ZM653.981 507.971C655.464 505.417 656.209 502.69 656.209 499.8H655.209C655.209 502.51 654.513 505.063 653.116 507.469L653.981 507.971ZM656.209 499.8C656.209 496.832 655.466 494.103 653.977 491.623L653.12 492.137C654.512 494.457 655.209 497.008 655.209 499.8H656.209ZM653.987 491.64C652.583 489.079 650.597 487.053 648.04 485.568L647.538 486.432C649.94 487.827 651.795 489.721 653.11 492.12L653.987 491.64ZM648.046 485.571C645.566 484.083 642.837 483.34 639.869 483.34V484.34C642.661 484.34 645.212 485.037 647.532 486.429L648.046 485.571ZM639.869 483.34H635.669V484.34H639.869V483.34ZM635.169 483.84V515.64H636.169V483.84H635.169ZM635.683 516.14L639.883 516.02L639.854 515.02L635.654 515.14L635.683 516.14ZM703.876 477V476.5H703.376V477H703.876ZM794.956 480L794.695 480.427L794.701 480.431L794.708 480.434L794.956 480ZM802.876 487.92L802.442 488.168L802.445 488.174L802.449 488.18L802.876 487.92ZM801.076 512.88L801.475 513.181L801.475 513.181L801.076 512.88ZM788.956 521.04L788.836 520.554L786.981 521.011L788.822 521.522L788.956 521.04ZM799.516 527.88L799.127 528.195L799.132 528.2L799.516 527.88ZM803.716 561V561.5H804.216V561H803.716ZM763.516 561H763.016V561.5H763.516V561ZM762.076 528.96L761.66 529.237L761.66 529.237L762.076 528.96ZM758.236 525.24L758.478 524.803L758.477 524.802L758.236 525.24ZM752.836 523.32L752.934 522.83L752.93 522.829L752.836 523.32ZM746.956 522.6L746.977 522.1L746.974 522.1L746.956 522.6ZM743.716 522.48L743.734 521.98L743.216 521.961V522.48H743.716ZM743.716 561V561.5H744.216V561H743.716ZM703.876 561H703.376V561.5H703.876V561ZM747.916 515.52V515.02H747.908L747.901 515.02L747.916 515.52ZM755.836 513.48L756.082 513.915L756.087 513.912L755.836 513.48ZM761.596 507.72L761.163 507.469L761.161 507.473L761.596 507.72ZM761.596 491.88L761.157 492.12L761.162 492.129L761.167 492.137L761.596 491.88ZM755.836 486L755.578 486.429L755.585 486.432L755.836 486ZM743.716 483.84V483.34H743.216V483.84H743.716ZM743.716 515.64H743.216V516.154L743.73 516.14L743.716 515.64ZM703.876 477.5H784.156V476.5H703.876V477.5ZM784.156 477.5C787.986 477.5 791.495 478.476 794.695 480.427L795.216 479.573C791.856 477.524 788.165 476.5 784.156 476.5V477.5ZM794.708 480.434C797.99 482.31 800.566 484.886 802.442 488.168L803.31 487.672C801.345 484.234 798.641 481.53 795.204 479.566L794.708 480.434ZM802.449 488.18C804.4 491.38 805.376 494.89 805.376 498.72H806.376C806.376 494.71 805.351 491.02 803.303 487.66L802.449 488.18ZM805.376 498.72C805.376 503.809 803.813 508.424 800.677 512.579L801.475 513.181C804.739 508.856 806.376 504.031 806.376 498.72H805.376ZM800.677 512.579C797.542 516.733 793.598 519.384 788.836 520.554L789.075 521.526C794.073 520.296 798.21 517.507 801.475 513.181L800.677 512.579ZM788.822 521.522C793.046 522.695 796.475 524.919 799.127 528.195L799.904 527.565C797.116 524.121 793.506 521.785 789.089 520.558L788.822 521.522ZM799.132 528.2C801.859 531.473 803.216 535.161 803.216 539.28H804.216C804.216 534.919 802.772 531.007 799.9 527.56L799.132 528.2ZM803.216 539.28V561H804.216V539.28H803.216ZM803.716 560.5H763.516V561.5H803.716V560.5ZM764.016 561V534.96H763.016V561H764.016ZM764.016 534.96C764.016 532.346 763.527 530.235 762.492 528.683L761.66 529.237C762.544 530.565 763.016 532.454 763.016 534.96H764.016ZM762.492 528.683C761.337 526.951 760.002 525.649 758.478 524.803L757.993 525.677C759.349 526.431 760.574 527.609 761.66 529.237L762.492 528.683ZM758.477 524.802C756.827 523.895 754.978 523.239 752.934 522.83L752.738 523.81C754.693 524.201 756.444 524.825 757.995 525.678L758.477 524.802ZM752.93 522.829C750.83 522.425 748.845 522.182 746.977 522.1L746.934 523.1C748.746 523.178 750.682 523.415 752.741 523.811L752.93 522.829ZM746.974 522.1L743.734 521.98L743.697 522.98L746.937 523.1L746.974 522.1ZM743.216 522.48V561H744.216V522.48H743.216ZM743.716 560.5H703.876V561.5H743.716V560.5ZM704.376 561V477H703.376V561H704.376ZM747.916 516.02C750.878 516.02 753.604 515.32 756.082 513.915L755.589 513.045C753.268 514.36 750.713 515.02 747.916 515.02V516.02ZM756.087 513.912C758.64 512.43 760.625 510.447 762.031 507.967L761.161 507.473C759.846 509.793 757.991 511.65 755.585 513.048L756.087 513.912ZM762.028 507.971C763.511 505.417 764.256 502.69 764.256 499.8H763.256C763.256 502.51 762.56 505.063 761.163 507.469L762.028 507.971ZM764.256 499.8C764.256 496.832 763.512 494.103 762.024 491.623L761.167 492.137C762.559 494.457 763.256 497.008 763.256 499.8H764.256ZM762.034 491.64C760.63 489.079 758.644 487.053 756.087 485.568L755.585 486.432C757.987 487.827 759.842 489.721 761.157 492.12L762.034 491.64ZM756.093 485.571C753.613 484.083 750.883 483.34 747.916 483.34V484.34C750.708 484.34 753.258 485.037 755.578 486.429L756.093 485.571ZM747.916 483.34H743.716V484.34H747.916V483.34ZM743.216 483.84V515.64H744.216V483.84H743.216ZM743.73 516.14L747.93 516.02L747.901 515.02L743.701 515.14L743.73 516.14Z" fill="#151515" fill-opacity="0.6" mask="url(#path-2-outside-1_28_376)"/>
</svg>
